<?xml version="1.0" standalone="no"?>
<!DOCTYPE svg PUBLIC "-//W3C//DTD SVG 20010904//EN"
 "http://www.w3.org/TR/2001/REC-SVG-20010904/DTD/svg10.dtd">
<svg version="1.0" xmlns="http://www.w3.org/2000/svg"
 width="500.000000pt" height="500.000000pt" viewBox="0 0 500.000000 500.000000"
 preserveAspectRatio="xMidYMid meet">
<metadata>
Created by potrace 1.14, written by Peter Selinger 2001-2017
</metadata>
<g transform="translate(0.000000,500.000000) scale(0.100000,-0.100000)"
fill="#000000" stroke="none">
<path d="M2226 4993 c-6 -6 -73 -15 -103 -14 -13 0 -23 -3 -23 -8 0 -4 -12 -7
-27 -5 -15 1 -32 0 -38 -4 -5 -3 -19 -7 -30 -8 -19 -2 -42 -6 -95 -19 -14 -3
-32 -8 -40 -10 -8 -2 -15 -4 -15 -5 0 -3 -41 -11 -57 -11 -10 0 -18 -4 -18 -9
0 -5 -7 -7 -15 -4 -8 4 -15 1 -15 -6 0 -6 -4 -8 -10 -5 -5 3 -23 -1 -39 -10
-17 -8 -39 -15 -51 -15 -12 0 -18 -4 -15 -10 3 -5 0 -7 -8 -4 -8 3 -21 -1 -28
-9 -7 -8 -21 -12 -31 -9 -10 2 -18 -1 -18 -7 0 -6 -3 -11 -7 -10 -15 2 -53
-14 -53 -22 0 -5 -7 -5 -17 -2 -11 4 -14 3 -9 -5 5 -8 2 -10 -8 -6 -9 3 -16 1
-16 -6 0 -6 -4 -9 -9 -5 -5 3 -16 -1 -24 -9 -8 -8 -17 -12 -21 -9 -3 4 -6 1
-6 -5 0 -7 -3 -11 -7 -11 -21 3 -33 -2 -27 -13 4 -6 3 -8 -4 -4 -11 7 -82 -23
-82 -35 0 -3 -13 -12 -30 -19 -17 -7 -30 -17 -30 -22 0 -5 -5 -6 -10 -3 -6 3
-13 -1 -16 -9 -3 -9 -10 -13 -15 -10 -5 3 -9 0 -9 -5 0 -6 -7 -11 -15 -11 -9
0 -27 -11 -40 -25 -14 -13 -25 -21 -25 -17 0 4 -7 -2 -15 -12 -8 -11 -15 -16
-15 -11 0 4 -9 -2 -20 -15 -11 -13 -20 -19 -20 -14 0 5 -7 0 -15 -10 -8 -11
-15 -16 -15 -12 0 10 -89 -64 -162 -135 -31 -31 -60 -54 -63 -51 -3 3 -5 0 -5
-7 0 -7 -7 -19 -15 -27 -8 -9 -15 -12 -15 -7 0 4 -8 -4 -17 -17 -10 -14 -32
-38 -50 -54 -18 -16 -33 -35 -33 -40 0 -6 -9 -17 -20 -24 -12 -7 -18 -18 -14
-24 4 -6 3 -8 -3 -5 -6 4 -16 0 -23 -8 -7 -8 -9 -15 -4 -15 5 0 -2 -7 -14 -16
-12 -8 -22 -20 -22 -25 0 -5 -9 -20 -21 -32 -11 -12 -28 -35 -36 -52 -9 -16
-22 -34 -29 -38 -8 -4 -14 -13 -14 -20 0 -7 -14 -30 -30 -51 -17 -22 -30 -46
-30 -53 0 -7 -4 -13 -10 -13 -5 0 -10 -7 -10 -15 0 -8 -3 -15 -8 -15 -8 0 -38
-61 -34 -72 1 -5 -2 -8 -7 -8 -10 0 -27 -39 -23 -52 1 -5 -3 -8 -9 -8 -5 0 -8
-4 -5 -9 4 -5 2 -11 -3 -13 -5 -1 -11 -10 -13 -18 -2 -8 -7 -18 -11 -21 -4 -3
-9 -16 -10 -27 -1 -12 -5 -22 -10 -22 -4 0 -5 -4 -2 -10 3 -5 1 -10 -5 -10 -6
0 -8 -4 -5 -10 3 -5 2 -10 -3 -10 -9 0 -26 -55 -23 -72 0 -5 -4 -8 -10 -8 -6
0 -9 -9 -6 -20 3 -10 1 -20 -5 -22 -5 -2 -11 -12 -13 -23 -2 -11 -4 -21 -5
-22 -2 -2 -3 -6 -4 -10 -1 -5 -5 -14 -9 -20 -5 -7 -5 -17 -2 -23 3 -6 1 -10
-6 -10 -7 0 -9 -10 -7 -25 3 -14 1 -25 -5 -25 -6 0 -7 -3 -4 -7 4 -3 2 -11 -3
-18 -5 -6 -11 -27 -12 -46 -2 -19 -6 -36 -10 -39 -8 -6 -20 -79 -21 -127 -1
-18 -5 -33 -9 -33 -4 0 -7 -8 -6 -17 0 -10 -3 -38 -8 -63 -4 -25 -7 -169 -7
-320 1 -292 2 -319 11 -335 7 -11 12 -58 12 -98 0 -16 3 -26 8 -23 5 3 9 -7 9
-22 1 -63 3 -83 10 -79 5 3 9 -5 9 -16 3 -30 9 -55 16 -63 4 -3 4 -12 2 -19
-3 -7 -1 -16 5 -19 6 -4 8 -13 5 -20 -3 -8 0 -17 5 -21 6 -3 9 -10 6 -15 -7
-11 15 -70 27 -70 5 0 6 -5 3 -10 -4 -6 -1 -17 5 -25 7 -8 10 -15 6 -15 -4 0
2 -12 11 -27 10 -15 17 -28 16 -30 -8 -9 -1 -33 12 -47 9 -8 16 -18 15 -21 -1
-27 2 -35 12 -29 6 4 8 3 5 -3 -7 -12 14 -63 26 -63 5 0 6 -4 2 -9 -3 -5 0
-15 7 -23 7 -7 15 -22 16 -33 2 -11 8 -23 14 -26 5 -3 9 -9 9 -13 -3 -20 0
-26 11 -20 6 4 8 3 5 -3 -4 -6 2 -22 13 -36 11 -14 20 -29 20 -34 0 -4 11 -20
25 -35 14 -15 25 -30 25 -33 -1 -21 1 -25 10 -20 6 4 9 2 8 -3 -3 -11 17 -45
44 -73 9 -9 14 -19 12 -22 -2 -2 9 -18 25 -35 16 -16 27 -32 25 -35 -3 -2 10
-21 29 -41 19 -19 32 -38 29 -41 -3 -3 2 -5 11 -5 10 0 17 -6 17 -13 0 -18 35
-49 44 -40 4 5 6 3 4 -2 -2 -6 3 -17 9 -25 7 -8 24 -30 39 -47 14 -18 30 -32
37 -30 6 1 11 -5 12 -13 0 -8 10 -19 23 -25 12 -5 22 -13 22 -18 0 -4 5 -5 12
-1 6 4 8 3 5 -3 -7 -11 46 -63 63 -63 5 0 10 -7 10 -15 0 -8 4 -15 10 -15 5 0
20 -10 34 -22 35 -33 49 -44 77 -58 13 -7 28 -19 32 -27 5 -7 12 -11 17 -8 4
3 11 -2 14 -11 3 -8 10 -12 16 -9 6 3 13 -1 16 -9 3 -9 10 -16 15 -16 6 0 19
-9 31 -20 12 -10 25 -17 30 -14 4 3 8 0 8 -5 0 -6 7 -11 15 -11 8 0 15 -3 15
-8 0 -4 9 -13 21 -20 17 -11 20 -11 13 0 -4 7 5 1 20 -14 16 -15 32 -25 37
-22 5 3 9 0 9 -6 0 -7 7 -9 16 -6 8 3 12 2 9 -3 -3 -5 5 -13 17 -16 42 -12 78
-30 78 -38 0 -5 4 -5 10 -2 5 3 10 1 10 -6 0 -7 3 -10 6 -6 3 3 22 -3 41 -14
19 -11 39 -16 45 -13 6 4 8 3 5 -3 -8 -13 39 -27 55 -17 7 5 8 2 3 -6 -6 -10
-4 -12 8 -7 10 4 17 2 17 -4 0 -6 7 -8 16 -5 10 4 13 2 8 -6 -5 -7 0 -9 14 -6
12 3 22 2 24 -2 2 -5 10 -10 18 -12 8 -2 18 -7 21 -11 3 -4 22 -9 41 -10 20
-1 34 -6 31 -11 -3 -5 6 -7 21 -4 14 3 26 1 26 -4 0 -6 6 -8 14 -5 8 3 16 2
18 -3 2 -5 20 -11 40 -12 21 -2 38 -6 38 -11 0 -4 11 -5 25 -3 14 3 25 0 25
-6 0 -6 13 -8 30 -6 17 3 30 0 30 -4 0 -5 12 -8 28 -7 15 2 32 1 37 -2 6 -4
24 -5 42 -4 18 1 29 -3 26 -7 -3 -5 24 -8 61 -5 36 2 66 0 66 -4 0 -4 78 -5
173 -3 94 2 198 4 230 4 31 1 57 5 57 10 0 5 16 6 37 3 22 -4 34 -2 30 4 -3 5
10 10 31 11 42 1 104 8 112 12 9 4 24 7 48 8 13 1 21 6 18 11 -3 4 6 6 19 3
15 -2 25 0 25 8 0 7 8 9 20 5 12 -4 20 -2 20 5 0 7 7 9 16 6 9 -3 21 -3 27 1
7 4 23 9 37 11 13 2 31 8 38 14 7 6 25 13 40 14 15 2 28 8 30 14 2 5 8 7 13 4
6 -3 16 -1 23 6 8 6 23 12 34 15 11 2 40 13 65 24 25 12 51 21 56 21 6 0 11 4
11 10 0 5 3 10 8 9 15 -2 52 14 52 23 0 5 4 7 9 3 5 -3 17 3 27 12 10 10 18
16 18 14 1 -3 20 4 43 14 23 10 40 21 38 25 -2 4 1 7 8 7 18 0 87 43 87 54 0
5 7 9 15 9 8 0 15 4 15 8 0 5 6 9 13 9 16 0 77 44 77 55 0 5 5 6 10 3 6 -3 13
1 16 9 3 9 11 16 16 16 13 0 74 51 71 60 -1 4 5 7 15 6 9 0 16 5 14 12 -1 8 1
11 6 8 5 -3 27 15 50 40 23 24 45 44 48 44 11 0 109 103 107 112 -2 4 3 7 10
5 6 -1 11 4 9 11 -1 8 2 11 8 7 5 -3 13 1 16 9 3 9 30 41 60 71 29 31 53 59
51 63 -1 4 11 19 26 35 16 15 25 32 22 37 -4 6 -3 9 2 8 4 -2 8 0 8 4 0 4 10
15 23 23 12 9 20 21 17 26 -4 5 1 12 9 15 9 3 13 10 10 15 -3 5 0 9 6 9 6 0
16 12 23 27 6 16 17 34 24 41 7 8 11 17 8 22 -3 4 2 11 11 14 10 4 14 12 10
23 -4 10 -4 14 0 10 9 -9 45 43 38 55 -3 4 -1 8 4 8 6 0 13 7 16 16 4 10 2 13
-7 9 -6 -4 -3 1 7 9 11 9 16 16 12 16 -4 0 0 7 9 16 9 9 14 23 11 31 -3 8 -2
12 3 9 9 -6 24 30 21 53 -1 7 3 10 9 6 10 -5 15 7 12 27 0 5 4 8 10 8 5 0 8 4
4 9 -3 5 0 13 6 16 5 4 8 13 5 21 -3 8 -1 14 5 14 6 0 8 7 5 16 -4 10 -2 13 6
8 7 -5 9 0 6 14 -3 12 -2 22 4 24 5 2 10 10 11 18 3 17 23 73 39 107 6 12 8
29 5 37 -4 9 -2 16 3 16 6 0 9 3 8 8 -1 4 6 31 15 61 9 30 15 57 12 59 -3 3 0
11 6 19 6 7 9 22 6 33 -3 11 -2 20 3 20 4 0 8 12 8 28 1 15 3 41 7 57 21 111
29 217 28 400 -1 198 -5 291 -15 300 -3 4 -4 18 -2 31 2 13 0 24 -5 24 -5 0
-7 16 -4 35 3 20 0 35 -5 35 -6 0 -8 14 -6 30 3 17 2 30 -3 30 -4 0 -9 12 -10
28 -1 29 -11 78 -20 102 -4 8 -7 18 -7 22 -1 3 -4 9 -8 13 -4 4 -4 13 -1 21 3
8 -1 22 -8 31 -8 8 -12 27 -11 41 3 15 0 22 -7 18 -7 -4 -8 -1 -5 8 3 9 2 16
-3 16 -5 0 -10 6 -11 13 -1 25 -12 61 -19 66 -5 3 -9 17 -11 31 -1 14 -7 26
-12 28 -5 2 -6 10 -3 18 3 8 0 14 -7 14 -6 0 -8 5 -5 10 3 6 1 10 -4 10 -6 0
-10 3 -9 8 4 18 -15 61 -25 55 -6 -4 -7 -1 -3 6 5 7 0 18 -10 26 -11 8 -15 15
-11 15 4 0 2 10 -5 23 -6 12 -13 29 -14 37 -2 8 -8 16 -14 18 -5 2 -8 8 -4 13
3 5 0 9 -6 9 -6 0 -9 4 -6 9 3 5 -1 14 -9 21 -8 7 -15 19 -15 27 0 7 -7 16
-15 19 -8 4 -12 10 -9 15 3 5 1 9 -4 9 -6 0 -13 11 -16 25 -4 16 -11 23 -18
19 -6 -4 -8 -3 -4 4 3 6 -2 18 -11 28 -10 10 -18 21 -18 25 0 5 -7 17 -16 27
-8 10 -18 26 -22 35 -3 9 -11 17 -17 17 -5 0 -10 6 -10 14 0 7 -14 27 -30 45
-17 17 -27 31 -23 31 5 0 -4 12 -19 28 -86 89 -121 128 -135 149 -8 12 -19 20
-24 17 -5 -3 -8 0 -7 8 2 7 -3 12 -10 10 -8 -1 -11 2 -8 6 3 5 -3 17 -14 27
-11 10 -20 15 -20 10 0 -4 -9 4 -21 19 -11 14 -26 23 -32 19 -7 -3 -9 -3 -5 2
8 9 -37 55 -53 55 -6 0 -8 4 -4 9 3 5 -3 12 -14 16 -11 3 -22 12 -25 20 -3 8
-12 15 -21 15 -8 0 -15 5 -15 10 0 6 -7 10 -15 10 -8 0 -15 4 -15 9 0 6 -18
20 -40 32 -22 13 -40 26 -40 31 0 4 -7 8 -15 8 -8 0 -15 5 -15 12 0 6 -3 9 -6
5 -3 -3 -14 3 -25 14 -11 11 -24 17 -28 14 -5 -2 -12 2 -15 11 -3 8 -10 13
-15 10 -5 -3 -12 1 -15 10 -3 8 -10 13 -15 10 -4 -3 -16 3 -26 14 -10 11 -22
20 -27 20 -5 0 -16 7 -25 16 -9 8 -22 13 -30 10 -8 -3 -11 -1 -8 4 3 6 -5 10
-19 10 -14 0 -26 5 -26 11 0 5 -4 8 -9 5 -5 -4 -11 -2 -13 3 -1 5 -10 11 -18
13 -8 2 -21 9 -29 16 -7 7 -20 11 -28 8 -8 -3 -11 -1 -8 4 3 6 0 10 -7 10 -7
0 -25 7 -40 14 -15 8 -38 16 -50 18 -13 2 -26 7 -29 11 -3 5 -12 9 -20 10 -8
2 -20 6 -26 10 -7 5 -13 6 -13 3 0 -3 -12 1 -27 9 -15 8 -30 12 -35 9 -4 -3
-8 0 -8 7 0 6 -8 9 -20 6 -10 -3 -20 -1 -22 3 -2 5 -16 11 -33 14 -16 2 -41 8
-55 11 -14 3 -32 8 -40 10 -8 2 -15 4 -15 5 0 4 -53 13 -82 13 -17 1 -29 5
-27 9 3 4 -5 8 -18 7 -13 0 -41 3 -63 6 -22 4 -56 9 -75 12 -45 6 -568 12
-574 6z"/>
</g>
</svg>
